<svg width="74" height="74" viewBox="0 0 74 74" fill="none" xmlns="http://www.w3.org/2000/svg">
<circle cx="37" cy="37" r="37" fill="url(#paint0_linear_162_547)"/>
<path d="M37 25.333C35.4529 25.333 33.9692 25.9476 32.8752 27.0416C31.7812 28.1355 31.1667 29.6192 31.1667 31.1663C31.1667 32.7134 31.7812 34.1972 32.8752 35.2911C33.9692 36.3851 35.4529 36.9997 37 36.9997C38.5471 36.9997 40.0308 36.3851 41.1248 35.2911C42.2188 34.1972 42.8333 32.7134 42.8333 31.1663C42.8333 29.6192 42.2188 28.1355 41.1248 27.0416C40.0308 25.9476 38.5471 25.333 37 25.333ZM37 28.6663C37.663 28.6663 38.2989 28.9297 38.7678 29.3986C39.2366 29.8674 39.5 30.5033 39.5 31.1663C39.5 31.8294 39.2366 32.4653 38.7678 32.9341C38.2989 33.4029 37.663 33.6663 37 33.6663C36.337 33.6663 35.7011 33.4029 35.2322 32.9341C34.7634 32.4653 34.5 31.8294 34.5 31.1663C34.5 30.5033 34.7634 29.8674 35.2322 29.3986C35.7011 28.9297 36.337 28.6663 37 28.6663ZM26.1667 30.333C25.0616 30.333 24.0018 30.772 23.2204 31.5534C22.439 32.3348 22 33.3946 22 34.4997C22 36.0663 22.8833 37.4163 24.15 38.133C24.75 38.4663 25.4333 38.6663 26.1667 38.6663C26.9 38.6663 27.5833 38.4663 28.1833 38.133C28.8 37.783 29.3167 37.283 29.7 36.683C28.4858 35.1006 27.8295 33.1609 27.8333 31.1663V30.6997C27.3333 30.4663 26.7667 30.333 26.1667 30.333ZM47.8333 30.333C47.2333 30.333 46.6667 30.4663 46.1667 30.6997V31.1663C46.1667 33.1663 45.5167 35.0997 44.3 36.683C44.5 36.9997 44.7167 37.2497 44.9667 37.4997C45.7353 38.2448 46.7628 38.663 47.8333 38.6663C48.5667 38.6663 49.25 38.4663 49.85 38.133C51.1167 37.4163 52 36.0663 52 34.4997C52 33.3946 51.561 32.3348 50.7796 31.5534C49.9982 30.772 48.9384 30.333 47.8333 30.333ZM37 40.333C33.1 40.333 25.3333 42.283 25.3333 46.1663V48.6663H48.6667V46.1663C48.6667 42.283 40.9 40.333 37 40.333ZM24.85 41.2497C21.6333 41.633 17 43.2663 17 46.1663V48.6663H22V45.4497C22 43.7663 23.15 42.3663 24.85 41.2497ZM49.15 41.2497C50.85 42.3663 52 43.7663 52 45.4497V48.6663H57V46.1663C57 43.2663 52.3667 41.633 49.15 41.2497ZM37 43.6663C39.55 43.6663 42.4 44.4997 44.05 45.333H29.95C31.6 44.4997 34.45 43.6663 37 43.6663Z" fill="white"/>
<defs>
<linearGradient id="paint0_linear_162_547" x1="37" y1="-1.26451e-06" x2="-47.8597" y2="165" gradientUnits="userSpaceOnUse">
<stop stop-color="#F69400"/>
<stop offset="1" stop-color="#F69400" stop-opacity="0"/>
</linearGradient>
</defs>
</svg>
